inDegrees=no
num_controls=7
num_derivatives=13
num_iterations=73
num_multipliers=7
num_parameters=0
num_slacks=7
num_states=26
objective=0.373609
objective_accelerations=0.037190
objective_balance=0.006429
objective_effort=0.044512
objective_height=0.279877
objective_ligament=0.005601
solver_duration=1053.371927
status=Solve_Succeeded
success=true
DataType=double
version=3
OpenSimVersion=4.5
endheader
time	/jointset/ground_pelvis/pelvis_tilt/value	/jointset/ground_pelvis/pelvis_tx/value	/jointset/ground_pelvis/pelvis_ty/value	/jointset/hip_l/hip_flexion_l/value	/jointset/hip_l/hip_adduction_l/value	/jointset/hip_l/hip_rotation_l/value	/jointset/back/lumbar_extension/value	/jointset/patellofemoral_l/patellar_flexion_l/value	/jointset/knee_l/knee_flexion_l/value	/jointset/knee_l/knee_adduction_l/value	/jointset/knee_l/knee_rotation_l/value	/jointset/ankle_l/ankle_angle_l/value	/jointset/subtalar_l/subtalar_angle_l/value	/jointset/ground_pelvis/pelvis_tilt/speed	/jointset/ground_pelvis/pelvis_tx/speed	/jointset/ground_pelvis/pelvis_ty/speed	/jointset/hip_l/hip_flexion_l/speed	/jointset/hip_l/hip_adduction_l/speed	/jointset/hip_l/hip_rotation_l/speed	/jointset/back/lumbar_extension/speed	/jointset/patellofemoral_l/patellar_flexion_l/speed	/jointset/knee_l/knee_flexion_l/speed	/jointset/knee_l/knee_adduction_l/speed	/jointset/knee_l/knee_rotation_l/speed	/jointset/ankle_l/ankle_angle_l/speed	/jointset/subtalar_l/subtalar_angle_l/speed	/forceset/tau_hip_flexion_l	/forceset/tau_hip_adduction_l	/forceset/tau_hip_rotation_l	/forceset/tau_knee_flexion_l	/forceset/tau_ankle_angle_l	/forceset/tau_subtalar_angle_l	/forceset/tau_lumbar_extension	lambda_cid13_p0	lambda_cid13_p1	lambda_cid13_p2	lambda_cid13_p3	lambda_cid13_p4	lambda_cid13_p5	lambda_cid14_p0	/jointset/ground_pelvis/pelvis_tilt/accel	/jointset/ground_pelvis/pelvis_tx/accel	/jointset/ground_pelvis/pelvis_ty/accel	/jointset/hip_l/hip_flexion_l/accel	/jointset/hip_l/hip_adduction_l/accel	/jointset/hip_l/hip_rotation_l/accel	/jointset/back/lumbar_extension/accel	/jointset/patellofemoral_l/patellar_flexion_l/accel	/jointset/knee_l/knee_flexion_l/accel	/jointset/knee_l/knee_adduction_l/accel	/jointset/knee_l/knee_rotation_l/accel	/jointset/ankle_l/ankle_angle_l/accel	/jointset/subtalar_l/subtalar_angle_l/accel	gamma_cid13_p0	gamma_cid13_p1	gamma_cid13_p2	gamma_cid13_p3	gamma_cid13_p4	gamma_cid13_p5	gamma_cid14_p0
0	-0.1577783194948509	0.05768624914940162	0.8979194972878285	0.3774924667018715	-0.2602778789061793	-0.2533811983642287	-0.01265067647494873	0.0322364824372155	0.03223648243721463	-0.174532354024007	0.1558360747897328	-0.04231377076293093	-0.01063055809088471	0	0	0	0	0	0	0	0	0	0	0	0	0	0.1657256770204061	-0.06767574781851854	-0.04316303864176256	-0.2708642524745284	0.2378449599896189	-0.04173867741155365	-0.1222836515056679	36.46539658922617	5.943800418456817	5.273235921416933	19.67562793637788	-547.4850718944899	-62.83918177435058	-38.50192373617391	-3.604624505512336	-3.778975452960081	-1.779801294351569	22.50773623300904	-0.8112275510545015	6.767387073411927	-11.28840058903805	23.67985909367908	23.67985909367787	4.452131112506183	1.25818668472973	6.18572702241746	0.5228157280554876	2.32766309502638e-08	1.366334648694163e-06	-2.927228458127862e-07	-3.201387889359297e-09	9.29456672972044e-07	4.202510680909091e-07	1.443029698676763e-07
0.01	-0.1579461411664514	0.05750224549060778	0.8978330245512266	0.3785856819812114	-0.2603190471698357	-0.2530413034733469	-0.01320950963781644	0.03339843588662186	0.03339843588662399	-0.1743157425141512	0.1558905370698403	-0.04200740831007547	-0.01060567633458456	-0.03310043453857239	-0.03634873756238988	-0.01721720054538645	0.2169132114990879	-0.008232475870161621	0.06759316066174903	-0.1103854296619763	0.2312698267490135	0.2312698267490175	0.04294673447761346	0.01085762635334386	0.06133479062365405	0.004992019996778882	0.1535766564886936	-0.07475263746882641	-0.04151952647361298	-0.2617288556931421	0.229400707343149	-0.02916854857841712	-0.1111272036812293	34.23865450887627	1.116594195062218	5.766268934016831	17.50102157852358	-550.0706411264175	-71.48405215742801	-38.53612541850718	-3.093198403846799	-3.495024418810146	-1.680891527050936	21.02362288872001	-0.8292828077739397	6.69751572338085	-10.7064337179525	22.68238613502919	22.68238613503019	4.159806175824666	0.9944594612001412	6.116710319084041	0.4895651773154891	-9.863387495561145e-08	1.44797691194769e-06	1.177063848302803e-07	1.158234580776816e-07	5.024623353601755e-07	1.115540248737854e-07	1.131714684360114e-07
0.02	-0.1584310562786032	0.0569683141540036	0.8975767373906873	0.3817961312316131	-0.2604425452327484	-0.2520370299436817	-0.0148307610099392	0.0368394559374258	0.03683945593742623	-0.1736808913474217	0.1560525573835873	-0.0410858269036345	-0.01053044036995135	-0.0634186881098199	-0.06998553556207156	-0.03396288478750422	0.4234467942126308	-0.01646595985140087	0.1328757277564766	-0.2124836418509492	0.4558133202786949	0.4558133202786943	0.08364793137265533	0.0215116067292254	0.1230437907170933	0.01007084166661297	0.1414276359569845	-0.08182952711913896	-0.03987601430549729	-0.2525934589117493	0.2209564546966788	-0.01659841974528444	-0.09997075585678869	32.23049369450629	-3.735987419222073	6.248622266129349	14.92989071785752	-549.3703467580812	-79.81021364295874	-38.63624225736729	-3.048188312047314	-3.236587540418478	-1.685498033697832	20.43181047590002	-0.8114291732700287	6.30526836000763	-9.630957094437342	22.33459244981268	22.33459244980973	4.00302359599186	1.217457489237272	6.260568916374448	0.5401760626665153	-2.205443808614867e-07	1.529619175201217e-06	5.281356154733468e-07	2.348483040447225e-07	7.546799774830693e-08	-1.971430183433383e-07	8.203996700434636e-08
0.03	-0.1592095053086177	0.05610988646007416	0.8971540055262737	0.3870251160190136	-0.2606449619882039	-0.2503948142623278	-0.01743445593116013	0.04248810831806268	0.04248810831806468	-0.1726462424567252	0.1563204393917883	-0.039549554373924	-0.01040171570245627	-0.09212005465741628	-0.101412007345416	-0.0506147970317718	0.6209523429768447	-0.02372829059245853	0.1949872740743497	-0.3072844377380619	0.6722967422391186	0.6722967422390929	0.1232225449919051	0.03191925512615423	0.1838210915919657	0.01585913924082856	0.133735669947435	-0.076102970767173	-0.03897838805146005	-0.2483817473401231	0.2182378055758648	-0.01830980459803691	-0.09296529000272531	31.44256980218533	-2.915589212587845	6.187292611123354	13.82331178498111	-548.09624891738	-76.81652075159738	-38.79681931212863	-2.758480643764516	-3.052430165064922	-1.659720791902805	19.20022281076781	-0.6406210543838673	6.077061106767726	-9.25900513748581	21.06213874549157	21.06213874549078	3.926124594152018	0.9306034861933654	5.927874538737664	0.625613153162366	-2.204944145010308e-07	1.533542623900484e-06	3.069775416028442e-07	3.030726772496696e-07	-2.137304129580579e-07	1.738928605376484e-08	1.096949608649221e-07
0.04	-0.1602704419676392	0.05494584341475664	0.896563817944995	0.3941872154408725	-0.2609113992570418	-0.2481488904499768	-0.02095703167158007	0.05025297925357242	0.05025297925357257	-0.171217558559981	0.1566880348782099	-0.03741719606232591	-0.01020961674954636	-0.1199162139109537	-0.1311086058396858	-0.06745402816052178	0.8100697211044849	-0.02927006252792531	0.2536173539558459	-0.3962598056906715	0.8790570312529163	0.8790570312529258	0.1624549325815746	0.04145430237399066	0.2422609470945991	0.0227456987495757	0.1260437039378837	-0.07037641441520691	-0.03808076179744273	-0.2441700357684971	0.2155191564550497	-0.02002118945078908	-0.08595982414866032	30.83803674763394	-2.109684187505102	6.108154935405265	12.35602674439025	-544.0969328974021	-73.52293421019591	-39.01023439678571	-2.867146853235465	-2.890612882603608	-1.722961810594313	18.75417634858528	-0.467317412151854	5.608975072732246	-8.465871507536722	20.3899658604875	20.38996586049661	3.934578390075825	1.0429372594188	5.793079841926597	0.7598284495728159	-2.179297992278671e-07	1.535863622815127e-06	7.279704908257725e-08	3.702496180265323e-07	-5.000876705323506e-07	2.427098244222953e-07	1.385620474119358e-07
0.05	-0.161605048225742	0.0534935411351327	0.8958030543054826	0.4032021322763896	-0.261226365581639	-0.2453350442127372	-0.02533968389981184	0.06004329133163454	0.06004329133163527	-0.1694012951769178	0.1571490114501383	-0.03470983456987648	-0.009944363292597862	-0.1467045707201751	-0.1590470199443507	-0.0848193510915817	0.9915401111519401	-0.03363161635369886	0.3086775611252228	-0.4794238130524356	1.07777247495566	1.07777247495571	0.2003686256110131	0.05057499096294187	0.2989644221101024	0.03032373510649706	0.1172092472792352	-0.06841123584891748	-0.03686187975060725	-0.2391567101916726	0.2107567986295289	-0.01746920323839394	-0.07830889225938902	29.85042476459509	-2.981439537027799	6.174432638881238	10.88722608971053	-538.5652399377898	-73.31311307015996	-39.26713885863476	-2.539607924668753	-2.699656560615145	-1.76151756833741	17.63742835962809	-0.4070806927558496	5.383451084365233	-8.114641314928274	19.42736926890039	19.42736926890068	3.655660638351211	0.8218134614270192	5.571941543911784	0.7593583924791049	-2.093183215710423e-07	1.336110334669082e-06	7.636450827462064e-08	3.579979669835568e-07	-5.019790661051156e-07	1.894527395863866e-07	1.208222611354866e-07
0.06	-0.163198523617919	0.05177101453721854	0.8948649974298644	0.4139905446177406	-0.2615822487094868	-0.2419848143947384	-0.03052857139454828	0.07178376497547155	0.07178376497547088	-0.1672187156877636	0.1576962306685132	-0.03144284628476206	-0.009602816039334687	-0.1716900407255187	-0.1851534694977263	-0.1029126753816871	1.164768822271492	-0.0374534231781019	0.3608940701075925	-0.5575068589914749	1.269089344407706	1.269089344407747	0.2357181537993863	0.05870283166364293	0.3541863056275883	0.03800445801251088	0.1083747906205827	-0.06644605728262813	-0.0356429977037848	-0.2341433846148501	0.2059944408040068	-0.01491721702599885	-0.07065796037011898	29.00354631903278	-3.866107716092416	6.229376086813789	9.134288734878593	-530.950469274527	-72.85975682589664	-39.55751538540773	-2.506569492459849	-2.524219972345786	-1.868562082403415	17.10584056300456	-0.3593680118777509	5.040235435330806	-7.449679222991757	18.91025101034786	18.91025101034726	3.421745421862769	0.8443676817687742	5.496761542323059	0.7803657593912975	-2.004522391822739e-07	1.127848655488902e-06	8.994240753876145e-08	3.42401954179746e-07	-4.918929516988688e-07	1.24466070615554e-07	1.01120080213839e-07
